<?xml version="1.0" encoding="utf-8"?>
<!-- Generator: Adobe Illustrator 17.1.0, SVG Export Plug-In . SVG Version: 6.00 Build 0)  -->
<!DOCTYPE svg PUBLIC "-//W3C//DTD SVG 1.1//EN" "http://www.w3.org/Graphics/SVG/1.1/DTD/svg11.dtd">
<svg version="1.1" id="Layer_1" xmlns="http://www.w3.org/2000/svg" xmlns:xlink="http://www.w3.org/1999/xlink" x="0px" y="0px"
	 viewBox="0 0 29.1 29.1" enable-background="new 0 0 29.1 29.1" xml:space="preserve">
<g id="c198_half_moon">
	<path d="M29.1,14.6C29.1,14.5,29.1,14.5,29.1,14.6C29.1,6.5,22.6,0,14.6,0c0,0,0,0,0,0h0l0,0C6.5,0,0.1,6.5,0,14.5c0,0,0,0.1,0,0.1
		v0l0,0c0,8,6.5,14.6,14.6,14.6l0,0h0c0,0,0,0,0,0C22.6,29.1,29.1,22.6,29.1,14.6L29.1,14.6L29.1,14.6L29.1,14.6z M14.6,2.1
		C21.4,2.1,27,7.7,27,14.6C27,21.4,21.4,27,14.6,27V2.1z"/>
</g>
<g id="Capa_1">
</g>
</svg>
