<?xml version="1.0" encoding="utf-8"?>
<!-- Generator: Adobe Illustrator 17.1.0, SVG Export Plug-In . SVG Version: 6.00 Build 0)  -->
<!DOCTYPE svg PUBLIC "-//W3C//DTD SVG 1.1//EN" "http://www.w3.org/Graphics/SVG/1.1/DTD/svg11.dtd">
<svg version="1.1" id="Layer_1" xmlns="http://www.w3.org/2000/svg" xmlns:xlink="http://www.w3.org/1999/xlink" x="0px" y="0px"
	 viewBox="0 0 29.1 29.1" enable-background="new 0 0 29.1 29.1" xml:space="preserve">
<g id="c151_half_moon">
	<path d="M29.1,14.6C29.1,14.5,29.1,14.5,29.1,14.6C29.1,6.5,22.6,0,14.6,0C6.5,0,0.1,6.5,0,14.5c0,0,0,0.1,0,0.1l0,0l0,0
		c0,8,6.5,14.6,14.6,14.6C22.6,29.1,29.1,22.6,29.1,14.6L29.1,14.6L29.1,14.6z M2.1,14.6c0-6.9,5.6-12.5,12.5-12.5V27
		C7.7,27,2.1,21.4,2.1,14.6z"/>
</g>
<g id="Capa_1">
</g>
</svg>
